# xmcd
#
# Track frame offsets:
#	150
#	14100
#	27779
#	37751
#	56482
#	68565
#	86115
#	97922
#	114088
#	128110
#
# Disc length: 1962 seconds
#
# Revision: 0
# Processed by: cddbd v1.4PL0 Copyright (c) Steve Scherf et al.
# Submitted via: dBpowerAMP V4.0
#
DISCID=7207a80a
DTITLE=Arthur Prysock - Country Side of Arthur Prysock
DYEAR=1900
DGENRE=Country
TTITLE0=Today I Started Loving Again
TTITLE1=Release Me
TTITLE2=The Worst Of The Hurt Is Over
TTITLE3=Frisco Line
TTITLE4=Green Green Grass Of Home
TTITLE5=Have A Good Time
TTITLE6=Crying Time
TTITLE7=He'll Have To Go
TTITLE8=Big Blue Diamonds
TTITLE9=You Gave Me A Mountain
EXTD=CEG
EXTT0=
EXTT1=
EXTT2=
EXTT3=
EXTT4=
EXTT5=
EXTT6=
EXTT7=
EXTT8=
EXTT9=
PLAYORDER=
